ISO-10303-21;
HEADER;
/* Generated by software containing ST-Developer
 * from STEP Tools, Inc. (www.steptools.com) 
 */

FILE_DESCRIPTION(
/* description */ (''),
/* implementation_level */ '2;1');

FILE_NAME(
/* name */ 
'WristStructureRelease_WristStructure_Dynamixel_selection.step',
/* time_stamp */ '2026-08-17T11:03:47+02:00',
/* author */ (''),
/* organization */ (''),
/* preprocessor_version */ 'ST-DEVELOPER v20.1',
/* originating_system */ 'Autodesk Translation Framework v15.8.0.0',
/* authorisation */ '');

FILE_SCHEMA (('AUTOMOTIVE_DESIGN { 1 0 10303 214 3 1 1 }'));
ENDSEC;

DATA;
#10=MECHANICAL_DESIGN_GEOMETRIC_PRESENTATION_REPRESENTATION('',(#13),#1054);
#11=SHAPE_REPRESENTATION_RELATIONSHIP('SRR','None',#1061,#12);
#12=ADVANCED_BREP_SHAPE_REPRESENTATION('',(#14),#1053);
#13=STYLED_ITEM('',(#1070),#14);
#14=MANIFOLD_SOLID_BREP('XC430Assembly_1_WristAdaper_Dynamixel_1_Body1',
#626);
#15=CYLINDRICAL_SURFACE('',#660,1.95);
#16=CYLINDRICAL_SURFACE('',#664,1.95);
#17=CYLINDRICAL_SURFACE('',#668,1.95);
#18=CYLINDRICAL_SURFACE('',#672,1.95);
#19=CYLINDRICAL_SURFACE('',#676,1.);
#20=CYLINDRICAL_SURFACE('',#679,1.);
#21=CYLINDRICAL_SURFACE('',#681,1.);
#22=CYLINDRICAL_SURFACE('',#683,1.);
#23=CYLINDRICAL_SURFACE('',#686,1.2);
#24=CYLINDRICAL_SURFACE('',#688,1.2);
#25=CYLINDRICAL_SURFACE('',#690,1.2);
#26=CYLINDRICAL_SURFACE('',#692,1.2);
#27=CYLINDRICAL_SURFACE('',#694,10.25);
#28=FACE_BOUND('',#103,.T.);
#29=FACE_BOUND('',#109,.T.);
#30=FACE_BOUND('',#112,.T.);
#31=FACE_BOUND('',#115,.T.);
#32=FACE_BOUND('',#118,.T.);
#33=FACE_BOUND('',#131,.T.);
#34=FACE_BOUND('',#132,.T.);
#35=FACE_BOUND('',#133,.T.);
#36=FACE_BOUND('',#134,.T.);
#37=FACE_BOUND('',#135,.T.);
#38=CIRCLE('',#648,10.25);
#39=CIRCLE('',#649,1.95);
#40=CIRCLE('',#650,1.);
#41=CIRCLE('',#651,1.95);
#42=CIRCLE('',#652,1.);
#43=CIRCLE('',#653,1.95);
#44=CIRCLE('',#654,1.);
#45=CIRCLE('',#655,1.95);
#46=CIRCLE('',#656,1.);
#47=CIRCLE('',#661,1.95);
#48=CIRCLE('',#663,1.2);
#49=CIRCLE('',#665,1.95);
#50=CIRCLE('',#667,1.2);
#51=CIRCLE('',#669,1.95);
#52=CIRCLE('',#671,1.2);
#53=CIRCLE('',#673,1.95);
#54=CIRCLE('',#675,1.2);
#55=CIRCLE('',#677,1.);
#56=CIRCLE('',#680,1.);
#57=CIRCLE('',#682,1.);
#58=CIRCLE('',#684,1.);
#59=CIRCLE('',#687,1.2);
#60=CIRCLE('',#689,1.2);
#61=CIRCLE('',#691,1.2);
#62=CIRCLE('',#693,1.2);
#63=CIRCLE('',#695,10.25);
#64=FACE_OUTER_BOUND('',#95,.T.);
#65=FACE_OUTER_BOUND('',#96,.T.);
#66=FACE_OUTER_BOUND('',#97,.T.);
#67=FACE_OUTER_BOUND('',#98,.T.);
#68=FACE_OUTER_BOUND('',#99,.T.);
#69=FACE_OUTER_BOUND('',#100,.T.);
#70=FACE_OUTER_BOUND('',#101,.T.);
#71=FACE_OUTER_BOUND('',#102,.T.);
#72=FACE_OUTER_BOUND('',#104,.T.);
#73=FACE_OUTER_BOUND('',#105,.T.);
#74=FACE_OUTER_BOUND('',#106,.T.);
#75=FACE_OUTER_BOUND('',#107,.T.);
#76=FACE_OUTER_BOUND('',#108,.T.);
#77=FACE_OUTER_BOUND('',#110,.T.);
#78=FACE_OUTER_BOUND('',#111,.T.);
#79=FACE_OUTER_BOUND('',#113,.T.);
#80=FACE_OUTER_BOUND('',#114,.T.);
#81=FACE_OUTER_BOUND('',#116,.T.);
#82=FACE_OUTER_BOUND('',#117,.T.);
#83=FACE_OUTER_BOUND('',#119,.T.);
#84=FACE_OUTER_BOUND('',#120,.T.);
#85=FACE_OUTER_BOUND('',#121,.T.);
#86=FACE_OUTER_BOUND('',#122,.T.);
#87=FACE_OUTER_BOUND('',#123,.T.);
#88=FACE_OUTER_BOUND('',#124,.T.);
#89=FACE_OUTER_BOUND('',#125,.T.);
#90=FACE_OUTER_BOUND('',#126,.T.);
#91=FACE_OUTER_BOUND('',#127,.T.);
#92=FACE_OUTER_BOUND('',#128,.T.);
#93=FACE_OUTER_BOUND('',#129,.T.);
#94=FACE_OUTER_BOUND('',#130,.T.);
#95=EDGE_LOOP('',(#403,#404,#405,#406));
#96=EDGE_LOOP('',(#407,#408,#409,#410));
#97=EDGE_LOOP('',(#411,#412,#413,#414));
#98=EDGE_LOOP('',(#415,#416,#417,#418));
#99=EDGE_LOOP('',(#419,#420,#421,#422));
#100=EDGE_LOOP('',(#423,#424,#425,#426));
#101=EDGE_LOOP('',(#427,#428,#429,#430,#431,#432,#433,#434));
#102=EDGE_LOOP('',(#435));
#103=EDGE_LOOP('',(#436,#437,#438,#439,#440,#441,#442,#443,#444,#445,#446,
#447,#448,#449,#450,#451,#452,#453,#454,#455,#456,#457,#458,#459));
#104=EDGE_LOOP('',(#460,#461,#462,#463));
#105=EDGE_LOOP('',(#464,#465,#466,#467));
#106=EDGE_LOOP('',(#468,#469,#470,#471,#472,#473,#474,#475));
#107=EDGE_LOOP('',(#476,#477,#478,#479));
#108=EDGE_LOOP('',(#480,#481,#482,#483));
#109=EDGE_LOOP('',(#484));
#110=EDGE_LOOP('',(#485,#486,#487,#488));
#111=EDGE_LOOP('',(#489,#490,#491,#492));
#112=EDGE_LOOP('',(#493));
#113=EDGE_LOOP('',(#494,#495,#496,#497));
#114=EDGE_LOOP('',(#498,#499,#500,#501));
#115=EDGE_LOOP('',(#502));
#116=EDGE_LOOP('',(#503,#504,#505,#506));
#117=EDGE_LOOP('',(#507,#508,#509,#510));
#118=EDGE_LOOP('',(#511));
#119=EDGE_LOOP('',(#512,#513,#514,#515));
#120=EDGE_LOOP('',(#516,#517,#518,#519,#520,#521,#522,#523));
#121=EDGE_LOOP('',(#524,#525,#526,#527));
#122=EDGE_LOOP('',(#528,#529,#530,#531));
#123=EDGE_LOOP('',(#532,#533,#534,#535));
#124=EDGE_LOOP('',(#536,#537,#538,#539,#540,#541,#542,#543));
#125=EDGE_LOOP('',(#544,#545,#546,#547));
#126=EDGE_LOOP('',(#548,#549,#550,#551));
#127=EDGE_LOOP('',(#552,#553,#554,#555));
#128=EDGE_LOOP('',(#556,#557,#558,#559));
#129=EDGE_LOOP('',(#560,#561,#562,#563));
#130=EDGE_LOOP('',(#564));
#131=EDGE_LOOP('',(#565,#566,#567,#568,#569,#570,#571,#572));
#132=EDGE_LOOP('',(#573));
#133=EDGE_LOOP('',(#574));
#134=EDGE_LOOP('',(#575));
#135=EDGE_LOOP('',(#576));
#136=LINE('',#878,#197);
#137=LINE('',#880,#198);
#138=LINE('',#882,#199);
#139=LINE('',#883,#200);
#140=LINE('',#887,#201);
#141=LINE('',#889,#202);
#142=LINE('',#891,#203);
#143=LINE('',#892,#204);
#144=LINE('',#896,#205);
#145=LINE('',#898,#206);
#146=LINE('',#900,#207);
#147=LINE('',#901,#208);
#148=LINE('',#905,#209);
#149=LINE('',#907,#210);
#150=LINE('',#909,#211);
#151=LINE('',#910,#212);
#152=LINE('',#914,#213);
#153=LINE('',#916,#214);
#154=LINE('',#918,#215);
#155=LINE('',#919,#216);
#156=LINE('',#923,#217);
#157=LINE('',#925,#218);
#158=LINE('',#927,#219);
#159=LINE('',#928,#220);
#160=LINE('',#930,#221);
#161=LINE('',#932,#222);
#162=LINE('',#934,#223);
#163=LINE('',#936,#224);
#164=LINE('',#938,#225);
#165=LINE('',#939,#226);
#166=LINE('',#945,#227);
#167=LINE('',#948,#228);
#168=LINE('',#951,#229);
#169=LINE('',#957,#230);
#170=LINE('',#959,#231);
#171=LINE('',#963,#232);
#172=LINE('',#965,#233);
#173=LINE('',#968,#234);
#174=LINE('',#971,#235);
#175=LINE('',#973,#236);
#176=LINE('',#974,#237);
#177=LINE('',#977,#238);
#178=LINE('',#979,#239);
#179=LINE('',#980,#240);
#180=LINE('',#982,#241);
#181=LINE('',#984,#242);
#182=LINE('',#986,#243);
#183=LINE('',#987,#244);
#184=LINE('',#1001,#245);
#185=LINE('',#1007,#246);
#186=LINE('',#1012,#247);
#187=LINE('',#1016,#248);
#188=LINE('',#1017,#249);
#189=LINE('',#1023,#250);
#190=LINE('',#1026,#251);
#191=LINE('',#1029,#252);
#192=LINE('',#1033,#253);
#193=LINE('',#1037,#254);
#194=LINE('',#1041,#255);
#195=LINE('',#1045,#256);
#196=LINE('',#1049,#257);
#197=VECTOR('',#701,10.);
#198=VECTOR('',#702,10.);
#199=VECTOR('',#703,10.);
#200=VECTOR('',#704,10.);
#201=VECTOR('',#707,10.);
#202=VECTOR('',#708,10.);
#203=VECTOR('',#709,10.);
#204=VECTOR('',#710,10.);
#205=VECTOR('',#713,10.);
#206=VECTOR('',#714,10.);
#207=VECTOR('',#715,10.);
#208=VECTOR('',#716,10.);
#209=VECTOR('',#719,10.);
#210=VECTOR('',#720,10.);
#211=VECTOR('',#721,10.);
#212=VECTOR('',#722,10.);
#213=VECTOR('',#725,10.);
#214=VECTOR('',#726,10.);
#215=VECTOR('',#727,10.);
#216=VECTOR('',#728,10.);
#217=VECTOR('',#731,10.);
#218=VECTOR('',#732,10.);
#219=VECTOR('',#733,10.);
#220=VECTOR('',#734,10.);
#221=VECTOR('',#737,10.);
#222=VECTOR('',#738,10.);
#223=VECTOR('',#739,10.);
#224=VECTOR('',#740,10.);
#225=VECTOR('',#741,10.);
#226=VECTOR('',#742,10.);
#227=VECTOR('',#749,10.);
#228=VECTOR('',#752,10.);
#229=VECTOR('',#755,10.);
#230=VECTOR('',#762,10.);
#231=VECTOR('',#763,10.);
#232=VECTOR('',#766,10.);
#233=VECTOR('',#767,10.);
#234=VECTOR('',#770,10.);
#235=VECTOR('',#773,10.);
#236=VECTOR('',#774,10.);
#237=VECTOR('',#775,10.);
#238=VECTOR('',#778,10.);
#239=VECTOR('',#779,10.);
#240=VECTOR('',#780,10.);
#241=VECTOR('',#783,10.);
#242=VECTOR('',#784,10.);
#243=VECTOR('',#785,10.);
#244=VECTOR('',#786,10.);
#245=VECTOR('',#809,10.);
#246=VECTOR('',#818,10.);
#247=VECTOR('',#823,10.);
#248=VECTOR('',#828,10.);
#249=VECTOR('',#829,10.);
#250=VECTOR('',#838,10.);
#251=VECTOR('',#841,10.);
#252=VECTOR('',#846,10.);
#253=VECTOR('',#851,1.2);
#254=VECTOR('',#856,1.2);
#255=VECTOR('',#861,1.2);
#256=VECTOR('',#866,1.2);
#257=VECTOR('',#871,10.25);
#258=VERTEX_POINT('',#876);
#259=VERTEX_POINT('',#877);
#260=VERTEX_POINT('',#879);
#261=VERTEX_POINT('',#881);
#262=VERTEX_POINT('',#885);
#263=VERTEX_POINT('',#886);
#264=VERTEX_POINT('',#888);
#265=VERTEX_POINT('',#890);
#266=VERTEX_POINT('',#894);
#267=VERTEX_POINT('',#895);
#268=VERTEX_POINT('',#897);
#269=VERTEX_POINT('',#899);
#270=VERTEX_POINT('',#903);
#271=VERTEX_POINT('',#904);
#272=VERTEX_POINT('',#906);
#273=VERTEX_POINT('',#908);
#274=VERTEX_POINT('',#912);
#275=VERTEX_POINT('',#913);
#276=VERTEX_POINT('',#915);
#277=VERTEX_POINT('',#917);
#278=VERTEX_POINT('',#921);
#279=VERTEX_POINT('',#922);
#280=VERTEX_POINT('',#924);
#281=VERTEX_POINT('',#926);
#282=VERTEX_POINT('',#931);
#283=VERTEX_POINT('',#933);
#284=VERTEX_POINT('',#935);
#285=VERTEX_POINT('',#937);
#286=VERTEX_POINT('',#941);
#287=VERTEX_POINT('',#944);
#288=VERTEX_POINT('',#946);
#289=VERTEX_POINT('',#950);
#290=VERTEX_POINT('',#954);
#291=VERTEX_POINT('',#956);
#292=VERTEX_POINT('',#958);
#293=VERTEX_POINT('',#960);
#294=VERTEX_POINT('',#962);
#295=VERTEX_POINT('',#964);
#296=VERTEX_POINT('',#966);
#297=VERTEX_POINT('',#970);
#298=VERTEX_POINT('',#972);
#299=VERTEX_POINT('',#976);
#300=VERTEX_POINT('',#978);
#301=VERTEX_POINT('',#983);
#302=VERTEX_POINT('',#985);
#303=VERTEX_POINT('',#991);
#304=VERTEX_POINT('',#996);
#305=VERTEX_POINT('',#1002);
#306=VERTEX_POINT('',#1008);
#307=VERTEX_POINT('',#1011);
#308=VERTEX_POINT('',#1015);
#309=VERTEX_POINT('',#1021);
#310=VERTEX_POINT('',#1025);
#311=VERTEX_POINT('',#1031);
#312=VERTEX_POINT('',#1035);
#313=VERTEX_POINT('',#1039);
#314=VERTEX_POINT('',#1043);
#315=VERTEX_POINT('',#1047);
#316=EDGE_CURVE('',#258,#259,#136,.T.);
#317=EDGE_CURVE('',#260,#258,#137,.T.);
#318=EDGE_CURVE('',#260,#261,#138,.T.);
#319=EDGE_CURVE('',#259,#261,#139,.T.);
#320=EDGE_CURVE('',#262,#263,#140,.T.);
#321=EDGE_CURVE('',#264,#262,#141,.T.);
#322=EDGE_CURVE('',#265,#264,#142,.T.);
#323=EDGE_CURVE('',#263,#265,#143,.T.);
#324=EDGE_CURVE('',#266,#267,#144,.T.);
#325=EDGE_CURVE('',#268,#266,#145,.T.);
#326=EDGE_CURVE('',#268,#269,#146,.T.);
#327=EDGE_CURVE('',#267,#269,#147,.T.);
#328=EDGE_CURVE('',#270,#271,#148,.T.);
#329=EDGE_CURVE('',#272,#270,#149,.T.);
#330=EDGE_CURVE('',#273,#272,#150,.T.);
#331=EDGE_CURVE('',#271,#273,#151,.T.);
#332=EDGE_CURVE('',#274,#275,#152,.T.);
#333=EDGE_CURVE('',#276,#274,#153,.T.);
#334=EDGE_CURVE('',#276,#277,#154,.T.);
#335=EDGE_CURVE('',#275,#277,#155,.T.);
#336=EDGE_CURVE('',#278,#279,#156,.T.);
#337=EDGE_CURVE('',#280,#278,#157,.T.);
#338=EDGE_CURVE('',#281,#280,#158,.T.);
#339=EDGE_CURVE('',#279,#281,#159,.T.);
#340=EDGE_CURVE('',#277,#280,#160,.T.);
#341=EDGE_CURVE('',#282,#278,#161,.T.);
#342=EDGE_CURVE('',#283,#282,#162,.T.);
#343=EDGE_CURVE('',#284,#283,#163,.T.);
#344=EDGE_CURVE('',#285,#284,#164,.T.);
#345=EDGE_CURVE('',#275,#285,#165,.T.);
#346=EDGE_CURVE('',#286,#286,#38,.T.);
#347=EDGE_CURVE('',#263,#258,#39,.T.);
#348=EDGE_CURVE('',#259,#287,#166,.T.);
#349=EDGE_CURVE('',#287,#288,#40,.T.);
#350=EDGE_CURVE('',#288,#270,#167,.T.);
#351=EDGE_CURVE('',#271,#266,#41,.T.);
#352=EDGE_CURVE('',#267,#289,#168,.T.);
#353=EDGE_CURVE('',#289,#282,#42,.T.);
#354=EDGE_CURVE('',#279,#274,#43,.T.);
#355=EDGE_CURVE('',#285,#290,#44,.T.);
#356=EDGE_CURVE('',#290,#291,#169,.T.);
#357=EDGE_CURVE('',#291,#292,#170,.T.);
#358=EDGE_CURVE('',#292,#293,#45,.T.);
#359=EDGE_CURVE('',#293,#294,#171,.T.);
#360=EDGE_CURVE('',#294,#295,#172,.T.);
#361=EDGE_CURVE('',#295,#296,#46,.T.);
#362=EDGE_CURVE('',#296,#262,#173,.T.);
#363=EDGE_CURVE('',#297,#291,#174,.T.);
#364=EDGE_CURVE('',#298,#297,#175,.T.);
#365=EDGE_CURVE('',#292,#298,#176,.T.);
#366=EDGE_CURVE('',#299,#293,#177,.T.);
#367=EDGE_CURVE('',#299,#300,#178,.T.);
#368=EDGE_CURVE('',#294,#300,#179,.T.);
#369=EDGE_CURVE('',#300,#297,#180,.T.);
#370=EDGE_CURVE('',#301,#290,#181,.T.);
#371=EDGE_CURVE('',#302,#301,#182,.T.);
#372=EDGE_CURVE('',#295,#302,#183,.T.);
#373=EDGE_CURVE('',#276,#281,#47,.T.);
#374=EDGE_CURVE('',#303,#303,#48,.T.);
#375=EDGE_CURVE('',#299,#298,#49,.T.);
#376=EDGE_CURVE('',#304,#304,#50,.T.);
#377=EDGE_CURVE('',#268,#273,#51,.T.);
#378=EDGE_CURVE('',#269,#272,#184,.T.);
#379=EDGE_CURVE('',#305,#305,#52,.T.);
#380=EDGE_CURVE('',#260,#265,#53,.T.);
#381=EDGE_CURVE('',#261,#264,#185,.T.);
#382=EDGE_CURVE('',#306,#306,#54,.T.);
#383=EDGE_CURVE('',#289,#307,#186,.T.);
#384=EDGE_CURVE('',#307,#283,#55,.T.);
#385=EDGE_CURVE('',#308,#288,#187,.T.);
#386=EDGE_CURVE('',#307,#308,#188,.T.);
#387=EDGE_CURVE('',#284,#301,#56,.T.);
#388=EDGE_CURVE('',#302,#309,#57,.T.);
#389=EDGE_CURVE('',#309,#296,#189,.T.);
#390=EDGE_CURVE('',#287,#310,#190,.T.);
#391=EDGE_CURVE('',#310,#308,#58,.T.);
#392=EDGE_CURVE('',#310,#309,#191,.T.);
#393=EDGE_CURVE('',#311,#311,#59,.T.);
#394=EDGE_CURVE('',#311,#303,#192,.T.);
#395=EDGE_CURVE('',#312,#312,#60,.T.);
#396=EDGE_CURVE('',#312,#306,#193,.T.);
#397=EDGE_CURVE('',#313,#313,#61,.T.);
#398=EDGE_CURVE('',#313,#305,#194,.T.);
#399=EDGE_CURVE('',#314,#314,#62,.T.);
#400=EDGE_CURVE('',#314,#304,#195,.T.);
#401=EDGE_CURVE('',#315,#315,#63,.T.);
#402=EDGE_CURVE('',#315,#286,#196,.T.);
#403=ORIENTED_EDGE('',*,*,#316,.F.);
#404=ORIENTED_EDGE('',*,*,#317,.F.);
#405=ORIENTED_EDGE('',*,*,#318,.T.);
#406=ORIENTED_EDGE('',*,*,#319,.F.);
#407=ORIENTED_EDGE('',*,*,#320,.F.);
#408=ORIENTED_EDGE('',*,*,#321,.F.);
#409=ORIENTED_EDGE('',*,*,#322,.F.);
#410=ORIENTED_EDGE('',*,*,#323,.F.);
#411=ORIENTED_EDGE('',*,*,#324,.F.);
#412=ORIENTED_EDGE('',*,*,#325,.F.);
#413=ORIENTED_EDGE('',*,*,#326,.T.);
#414=ORIENTED_EDGE('',*,*,#327,.F.);
#415=ORIENTED_EDGE('',*,*,#328,.F.);
#416=ORIENTED_EDGE('',*,*,#329,.F.);
#417=ORIENTED_EDGE('',*,*,#330,.F.);
#418=ORIENTED_EDGE('',*,*,#331,.F.);
#419=ORIENTED_EDGE('',*,*,#332,.F.);
#420=ORIENTED_EDGE('',*,*,#333,.F.);
#421=ORIENTED_EDGE('',*,*,#334,.T.);
#422=ORIENTED_EDGE('',*,*,#335,.F.);
#423=ORIENTED_EDGE('',*,*,#336,.F.);
#424=ORIENTED_EDGE('',*,*,#337,.F.);
#425=ORIENTED_EDGE('',*,*,#338,.F.);
#426=ORIENTED_EDGE('',*,*,#339,.F.);
#427=ORIENTED_EDGE('',*,*,#335,.T.);
#428=ORIENTED_EDGE('',*,*,#340,.T.);
#429=ORIENTED_EDGE('',*,*,#337,.T.);
#430=ORIENTED_EDGE('',*,*,#341,.F.);
#431=ORIENTED_EDGE('',*,*,#342,.F.);
#432=ORIENTED_EDGE('',*,*,#343,.F.);
#433=ORIENTED_EDGE('',*,*,#344,.F.);
#434=ORIENTED_EDGE('',*,*,#345,.F.);
#435=ORIENTED_EDGE('',*,*,#346,.T.);
#436=ORIENTED_EDGE('',*,*,#320,.T.);
#437=ORIENTED_EDGE('',*,*,#347,.T.);
#438=ORIENTED_EDGE('',*,*,#316,.T.);
#439=ORIENTED_EDGE('',*,*,#348,.T.);
#440=ORIENTED_EDGE('',*,*,#349,.T.);
#441=ORIENTED_EDGE('',*,*,#350,.T.);
#442=ORIENTED_EDGE('',*,*,#328,.T.);
#443=ORIENTED_EDGE('',*,*,#351,.T.);
#444=ORIENTED_EDGE('',*,*,#324,.T.);
#445=ORIENTED_EDGE('',*,*,#352,.T.);
#446=ORIENTED_EDGE('',*,*,#353,.T.);
#447=ORIENTED_EDGE('',*,*,#341,.T.);
#448=ORIENTED_EDGE('',*,*,#336,.T.);
#449=ORIENTED_EDGE('',*,*,#354,.T.);
#450=ORIENTED_EDGE('',*,*,#332,.T.);
#451=ORIENTED_EDGE('',*,*,#345,.T.);
#452=ORIENTED_EDGE('',*,*,#355,.T.);
#453=ORIENTED_EDGE('',*,*,#356,.T.);
#454=ORIENTED_EDGE('',*,*,#357,.T.);
#455=ORIENTED_EDGE('',*,*,#358,.T.);
#456=ORIENTED_EDGE('',*,*,#359,.T.);
#457=ORIENTED_EDGE('',*,*,#360,.T.);
#458=ORIENTED_EDGE('',*,*,#361,.T.);
#459=ORIENTED_EDGE('',*,*,#362,.T.);
#460=ORIENTED_EDGE('',*,*,#357,.F.);
#461=ORIENTED_EDGE('',*,*,#363,.F.);
#462=ORIENTED_EDGE('',*,*,#364,.F.);
#463=ORIENTED_EDGE('',*,*,#365,.F.);
#464=ORIENTED_EDGE('',*,*,#359,.F.);
#465=ORIENTED_EDGE('',*,*,#366,.F.);
#466=ORIENTED_EDGE('',*,*,#367,.T.);
#467=ORIENTED_EDGE('',*,*,#368,.F.);
#468=ORIENTED_EDGE('',*,*,#368,.T.);
#469=ORIENTED_EDGE('',*,*,#369,.T.);
#470=ORIENTED_EDGE('',*,*,#363,.T.);
#471=ORIENTED_EDGE('',*,*,#356,.F.);
#472=ORIENTED_EDGE('',*,*,#370,.F.);
#473=ORIENTED_EDGE('',*,*,#371,.F.);
#474=ORIENTED_EDGE('',*,*,#372,.F.);
#475=ORIENTED_EDGE('',*,*,#360,.F.);
#476=ORIENTED_EDGE('',*,*,#333,.T.);
#477=ORIENTED_EDGE('',*,*,#354,.F.);
#478=ORIENTED_EDGE('',*,*,#339,.T.);
#479=ORIENTED_EDGE('',*,*,#373,.F.);
#480=ORIENTED_EDGE('',*,*,#373,.T.);
#481=ORIENTED_EDGE('',*,*,#338,.T.);
#482=ORIENTED_EDGE('',*,*,#340,.F.);
#483=ORIENTED_EDGE('',*,*,#334,.F.);
#484=ORIENTED_EDGE('',*,*,#374,.F.);
#485=ORIENTED_EDGE('',*,*,#366,.T.);
#486=ORIENTED_EDGE('',*,*,#358,.F.);
#487=ORIENTED_EDGE('',*,*,#365,.T.);
#488=ORIENTED_EDGE('',*,*,#375,.F.);
#489=ORIENTED_EDGE('',*,*,#375,.T.);
#490=ORIENTED_EDGE('',*,*,#364,.T.);
#491=ORIENTED_EDGE('',*,*,#369,.F.);
#492=ORIENTED_EDGE('',*,*,#367,.F.);
#493=ORIENTED_EDGE('',*,*,#376,.F.);
#494=ORIENTED_EDGE('',*,*,#331,.T.);
#495=ORIENTED_EDGE('',*,*,#377,.F.);
#496=ORIENTED_EDGE('',*,*,#325,.T.);
#497=ORIENTED_EDGE('',*,*,#351,.F.);
#498=ORIENTED_EDGE('',*,*,#377,.T.);
#499=ORIENTED_EDGE('',*,*,#330,.T.);
#500=ORIENTED_EDGE('',*,*,#378,.F.);
#501=ORIENTED_EDGE('',*,*,#326,.F.);
#502=ORIENTED_EDGE('',*,*,#379,.F.);
#503=ORIENTED_EDGE('',*,*,#323,.T.);
#504=ORIENTED_EDGE('',*,*,#380,.F.);
#505=ORIENTED_EDGE('',*,*,#317,.T.);
#506=ORIENTED_EDGE('',*,*,#347,.F.);
#507=ORIENTED_EDGE('',*,*,#380,.T.);
#508=ORIENTED_EDGE('',*,*,#322,.T.);
#509=ORIENTED_EDGE('',*,*,#381,.F.);
#510=ORIENTED_EDGE('',*,*,#318,.F.);
#511=ORIENTED_EDGE('',*,*,#382,.F.);
#512=ORIENTED_EDGE('',*,*,#383,.T.);
#513=ORIENTED_EDGE('',*,*,#384,.T.);
#514=ORIENTED_EDGE('',*,*,#342,.T.);
#515=ORIENTED_EDGE('',*,*,#353,.F.);
#516=ORIENTED_EDGE('',*,*,#329,.T.);
#517=ORIENTED_EDGE('',*,*,#350,.F.);
#518=ORIENTED_EDGE('',*,*,#385,.F.);
#519=ORIENTED_EDGE('',*,*,#386,.F.);
#520=ORIENTED_EDGE('',*,*,#383,.F.);
#521=ORIENTED_EDGE('',*,*,#352,.F.);
#522=ORIENTED_EDGE('',*,*,#327,.T.);
#523=ORIENTED_EDGE('',*,*,#378,.T.);
#524=ORIENTED_EDGE('',*,*,#344,.T.);
#525=ORIENTED_EDGE('',*,*,#387,.T.);
#526=ORIENTED_EDGE('',*,*,#370,.T.);
#527=ORIENTED_EDGE('',*,*,#355,.F.);
#528=ORIENTED_EDGE('',*,*,#372,.T.);
#529=ORIENTED_EDGE('',*,*,#388,.T.);
#530=ORIENTED_EDGE('',*,*,#389,.T.);
#531=ORIENTED_EDGE('',*,*,#361,.F.);
#532=ORIENTED_EDGE('',*,*,#390,.T.);
#533=ORIENTED_EDGE('',*,*,#391,.T.);
#534=ORIENTED_EDGE('',*,*,#385,.T.);
#535=ORIENTED_EDGE('',*,*,#349,.F.);
#536=ORIENTED_EDGE('',*,*,#321,.T.);
#537=ORIENTED_EDGE('',*,*,#362,.F.);
#538=ORIENTED_EDGE('',*,*,#389,.F.);
#539=ORIENTED_EDGE('',*,*,#392,.F.);
#540=ORIENTED_EDGE('',*,*,#390,.F.);
#541=ORIENTED_EDGE('',*,*,#348,.F.);
#542=ORIENTED_EDGE('',*,*,#319,.T.);
#543=ORIENTED_EDGE('',*,*,#381,.T.);
#544=ORIENTED_EDGE('',*,*,#393,.F.);
#545=ORIENTED_EDGE('',*,*,#394,.T.);
#546=ORIENTED_EDGE('',*,*,#374,.T.);
#547=ORIENTED_EDGE('',*,*,#394,.F.);
#548=ORIENTED_EDGE('',*,*,#395,.F.);
#549=ORIENTED_EDGE('',*,*,#396,.T.);
#550=ORIENTED_EDGE('',*,*,#382,.T.);
#551=ORIENTED_EDGE('',*,*,#396,.F.);
#552=ORIENTED_EDGE('',*,*,#397,.F.);
#553=ORIENTED_EDGE('',*,*,#398,.T.);
#554=ORIENTED_EDGE('',*,*,#379,.T.);
#555=ORIENTED_EDGE('',*,*,#398,.F.);
#556=ORIENTED_EDGE('',*,*,#399,.F.);
#557=ORIENTED_EDGE('',*,*,#400,.T.);
#558=ORIENTED_EDGE('',*,*,#376,.T.);
#559=ORIENTED_EDGE('',*,*,#400,.F.);
#560=ORIENTED_EDGE('',*,*,#401,.F.);
#561=ORIENTED_EDGE('',*,*,#402,.T.);
#562=ORIENTED_EDGE('',*,*,#346,.F.);
#563=ORIENTED_EDGE('',*,*,#402,.F.);
#564=ORIENTED_EDGE('',*,*,#401,.T.);
#565=ORIENTED_EDGE('',*,*,#392,.T.);
#566=ORIENTED_EDGE('',*,*,#388,.F.);
#567=ORIENTED_EDGE('',*,*,#371,.T.);
#568=ORIENTED_EDGE('',*,*,#387,.F.);
#569=ORIENTED_EDGE('',*,*,#343,.T.);
#570=ORIENTED_EDGE('',*,*,#384,.F.);
#571=ORIENTED_EDGE('',*,*,#386,.T.);
#572=ORIENTED_EDGE('',*,*,#391,.F.);
#573=ORIENTED_EDGE('',*,*,#399,.T.);
#574=ORIENTED_EDGE('',*,*,#397,.T.);
#575=ORIENTED_EDGE('',*,*,#395,.T.);
#576=ORIENTED_EDGE('',*,*,#393,.T.);
#577=PLANE('',#640);
#578=PLANE('',#641);
#579=PLANE('',#642);
#580=PLANE('',#643);
#581=PLANE('',#644);
#582=PLANE('',#645);
#583=PLANE('',#646);
#584=PLANE('',#647);
#585=PLANE('',#657);
#586=PLANE('',#658);
#587=PLANE('',#659);
#588=PLANE('',#662);
#589=PLANE('',#666);
#590=PLANE('',#670);
#591=PLANE('',#674);
#592=PLANE('',#678);
#593=PLANE('',#685);
#594=PLANE('',#696);
#595=ADVANCED_FACE('',(#64),#577,.F.);
#596=ADVANCED_FACE('',(#65),#578,.F.);
#597=ADVANCED_FACE('',(#66),#579,.F.);
#598=ADVANCED_FACE('',(#67),#580,.F.);
#599=ADVANCED_FACE('',(#68),#581,.F.);
#600=ADVANCED_FACE('',(#69),#582,.F.);
#601=ADVANCED_FACE('',(#70),#583,.F.);
#602=ADVANCED_FACE('',(#71,#28),#584,.T.);
#603=ADVANCED_FACE('',(#72),#585,.F.);
#604=ADVANCED_FACE('',(#73),#586,.F.);
#605=ADVANCED_FACE('',(#74),#587,.F.);
#606=ADVANCED_FACE('',(#75),#15,.F.);
#607=ADVANCED_FACE('',(#76,#29),#588,.T.);
#608=ADVANCED_FACE('',(#77),#16,.F.);
#609=ADVANCED_FACE('',(#78,#30),#589,.T.);
#610=ADVANCED_FACE('',(#79),#17,.F.);
#611=ADVANCED_FACE('',(#80,#31),#590,.T.);
#612=ADVANCED_FACE('',(#81),#18,.F.);
#613=ADVANCED_FACE('',(#82,#32),#591,.T.);
#614=ADVANCED_FACE('',(#83),#19,.F.);
#615=ADVANCED_FACE('',(#84),#592,.F.);
#616=ADVANCED_FACE('',(#85),#20,.F.);
#617=ADVANCED_FACE('',(#86),#21,.F.);
#618=ADVANCED_FACE('',(#87),#22,.F.);
#619=ADVANCED_FACE('',(#88),#593,.F.);
#620=ADVANCED_FACE('',(#89),#23,.F.);
#621=ADVANCED_FACE('',(#90),#24,.F.);
#622=ADVANCED_FACE('',(#91),#25,.F.);
#623=ADVANCED_FACE('',(#92),#26,.F.);
#624=ADVANCED_FACE('',(#93),#27,.T.);
#625=ADVANCED_FACE('',(#94,#33,#34,#35,#36,#37),#594,.F.);
#626=CLOSED_SHELL('',(#595,#596,#597,#598,#599,#600,#601,#602,#603,#604,
#605,#606,#607,#608,#609,#610,#611,#612,#613,#614,#615,#616,#617,#618,#619,
#620,#621,#622,#623,#624,#625));
#627=DERIVED_UNIT_ELEMENT(#629,1.);
#628=DERIVED_UNIT_ELEMENT(#1056,-3.);
#629=(
MASS_UNIT()
NAMED_UNIT(*)
SI_UNIT(.KILO.,.GRAM.)
);
#630=DERIVED_UNIT((#627,#628));
#631=MEASURE_REPRESENTATION_ITEM('density measure',
POSITIVE_RATIO_MEASURE(7850.),#630);
#632=PROPERTY_DEFINITION_REPRESENTATION(#637,#634);
#633=PROPERTY_DEFINITION_REPRESENTATION(#638,#635);
#634=REPRESENTATION('material name',(#636),#1053);
#635=REPRESENTATION('density',(#631),#1053);
#636=DESCRIPTIVE_REPRESENTATION_ITEM('Steel','Steel');
#637=PROPERTY_DEFINITION('material property','material name',#1063);
#638=PROPERTY_DEFINITION('material property','density of part',#1063);
#639=AXIS2_PLACEMENT_3D('',#874,#697,#698);
#640=AXIS2_PLACEMENT_3D('',#875,#699,#700);
#641=AXIS2_PLACEMENT_3D('',#884,#705,#706);
#642=AXIS2_PLACEMENT_3D('',#893,#711,#712);
#643=AXIS2_PLACEMENT_3D('',#902,#717,#718);
#644=AXIS2_PLACEMENT_3D('',#911,#723,#724);
#645=AXIS2_PLACEMENT_3D('',#920,#729,#730);
#646=AXIS2_PLACEMENT_3D('',#929,#735,#736);
#647=AXIS2_PLACEMENT_3D('',#940,#743,#744);
#648=AXIS2_PLACEMENT_3D('',#942,#745,#746);
#649=AXIS2_PLACEMENT_3D('',#943,#747,#748);
#650=AXIS2_PLACEMENT_3D('',#947,#750,#751);
#651=AXIS2_PLACEMENT_3D('',#949,#753,#754);
#652=AXIS2_PLACEMENT_3D('',#952,#756,#757);
#653=AXIS2_PLACEMENT_3D('',#953,#758,#759);
#654=AXIS2_PLACEMENT_3D('',#955,#760,#761);
#655=AXIS2_PLACEMENT_3D('',#961,#764,#765);
#656=AXIS2_PLACEMENT_3D('',#967,#768,#769);
#657=AXIS2_PLACEMENT_3D('',#969,#771,#772);
#658=AXIS2_PLACEMENT_3D('',#975,#776,#777);
#659=AXIS2_PLACEMENT_3D('',#981,#781,#782);
#660=AXIS2_PLACEMENT_3D('',#988,#787,#788);
#661=AXIS2_PLACEMENT_3D('',#989,#789,#790);
#662=AXIS2_PLACEMENT_3D('',#990,#791,#792);
#663=AXIS2_PLACEMENT_3D('',#992,#793,#794);
#664=AXIS2_PLACEMENT_3D('',#993,#795,#796);
#665=AXIS2_PLACEMENT_3D('',#994,#797,#798);
#666=AXIS2_PLACEMENT_3D('',#995,#799,#800);
#667=AXIS2_PLACEMENT_3D('',#997,#801,#802);
#668=AXIS2_PLACEMENT_3D('',#998,#803,#804);
#669=AXIS2_PLACEMENT_3D('',#999,#805,#806);
#670=AXIS2_PLACEMENT_3D('',#1000,#807,#808);
#671=AXIS2_PLACEMENT_3D('',#1003,#810,#811);
#672=AXIS2_PLACEMENT_3D('',#1004,#812,#813);
#673=AXIS2_PLACEMENT_3D('',#1005,#814,#815);
#674=AXIS2_PLACEMENT_3D('',#1006,#816,#817);
#675=AXIS2_PLACEMENT_3D('',#1009,#819,#820);
#676=AXIS2_PLACEMENT_3D('',#1010,#821,#822);
#677=AXIS2_PLACEMENT_3D('',#1013,#824,#825);
#678=AXIS2_PLACEMENT_3D('',#1014,#826,#827);
#679=AXIS2_PLACEMENT_3D('',#1018,#830,#831);
#680=AXIS2_PLACEMENT_3D('',#1019,#832,#833);
#681=AXIS2_PLACEMENT_3D('',#1020,#834,#835);
#682=AXIS2_PLACEMENT_3D('',#1022,#836,#837);
#683=AXIS2_PLACEMENT_3D('',#1024,#839,#840);
#684=AXIS2_PLACEMENT_3D('',#1027,#842,#843);
#685=AXIS2_PLACEMENT_3D('',#1028,#844,#845);
#686=AXIS2_PLACEMENT_3D('',#1030,#847,#848);
#687=AXIS2_PLACEMENT_3D('',#1032,#849,#850);
#688=AXIS2_PLACEMENT_3D('',#1034,#852,#853);
#689=AXIS2_PLACEMENT_3D('',#1036,#854,#855);
#690=AXIS2_PLACEMENT_3D('',#1038,#857,#858);
#691=AXIS2_PLACEMENT_3D('',#1040,#859,#860);
#692=AXIS2_PLACEMENT_3D('',#1042,#862,#863);
#693=AXIS2_PLACEMENT_3D('',#1044,#864,#865);
#694=AXIS2_PLACEMENT_3D('',#1046,#867,#868);
#695=AXIS2_PLACEMENT_3D('',#1048,#869,#870);
#696=AXIS2_PLACEMENT_3D('',#1050,#872,#873);
#697=DIRECTION('axis',(0.,0.,1.));
#698=DIRECTION('refdir',(1.,0.,0.));
#699=DIRECTION('center_axis',(-1.,1.59594559789866E-16,6.00846863594825E-17));
#700=DIRECTION('ref_axis',(-6.00846863594825E-17,1.53391284567617E-30,-1.));
#701=DIRECTION('',(6.00846863594825E-17,-1.53391284567617E-30,1.));
#702=DIRECTION('',(-1.59594559789866E-16,-1.,-1.52432365660652E-30));
#703=DIRECTION('',(6.00846863594825E-17,-1.53391284567617E-30,1.));
#704=DIRECTION('',(1.59594559789866E-16,1.,1.52432365660652E-30));
#705=DIRECTION('center_axis',(1.,-1.59594559789866E-16,-5.35921896280497E-16));
#706=DIRECTION('ref_axis',(5.35921896280497E-16,-1.60985387572516E-30,1.));
#707=DIRECTION('',(-5.35921896280497E-16,1.60985387572516E-30,-1.));
#708=DIRECTION('',(-1.59594559789866E-16,-1.,-1.52432365660652E-30));
#709=DIRECTION('',(5.35921896280497E-16,-1.60985387572516E-30,1.));
#710=DIRECTION('',(1.59594559789866E-16,1.,1.52432365660652E-30));
#711=DIRECTION('center_axis',(-1.14765359788519E-18,-1.52414049733577E-30,
1.));
#712=DIRECTION('ref_axis',(-1.,1.59594559789866E-16,-1.14765359788519E-18));
#713=DIRECTION('',(1.,-1.59594559789866E-16,1.14765359788519E-18));
#714=DIRECTION('',(-1.59594559789866E-16,-1.,-1.52432365660652E-30));
#715=DIRECTION('',(1.,-1.59594559789866E-16,1.14765359788519E-18));
#716=DIRECTION('',(1.59594559789866E-16,1.,1.52432365660652E-30));
#717=DIRECTION('center_axis',(-4.74689556323129E-16,1.60008152738476E-30,
-1.));
#718=DIRECTION('ref_axis',(1.,-1.59594559789866E-16,-4.74689556323129E-16));
#719=DIRECTION('',(-1.,1.59594559789866E-16,4.74689556323129E-16));
#720=DIRECTION('',(-1.59594559789866E-16,-1.,-1.52432365660652E-30));
#721=DIRECTION('',(1.,-1.59594559789866E-16,-4.74689556323129E-16));
#722=DIRECTION('',(1.59594559789866E-16,1.,1.52432365660652E-30));
#723=DIRECTION('center_axis',(1.,-1.59594559789866E-16,6.23799935552528E-17));
#724=DIRECTION('ref_axis',(-6.23799935552528E-17,-1.51436814899537E-30,
1.));
#725=DIRECTION('',(6.23799935552528E-17,1.51436814899537E-30,-1.));
#726=DIRECTION('',(-1.59594559789866E-16,-1.,-1.52432365660652E-30));
#727=DIRECTION('',(6.23799935552528E-17,1.51436814899537E-30,-1.));
#728=DIRECTION('',(1.59594559789866E-16,1.,1.52432365660652E-30));
#729=DIRECTION('center_axis',(-1.,1.59594559789866E-16,4.13457216365762E-16));
#730=DIRECTION('ref_axis',(-4.13457216365762E-16,1.59030917904436E-30,-1.));
#731=DIRECTION('',(4.13457216365762E-16,-1.59030917904436E-30,1.));
#732=DIRECTION('',(-1.59594559789866E-16,-1.,-1.52432365660652E-30));
#733=DIRECTION('',(-4.13457216365762E-16,1.59030917904436E-30,-1.));
#734=DIRECTION('',(1.59594559789866E-16,1.,1.52432365660652E-30));
#735=DIRECTION('center_axis',(-5.17008107961379E-16,-1.44181197520863E-30,
1.));
#736=DIRECTION('ref_axis',(1.,-1.59594559789866E-16,5.17008107961379E-16));
#737=DIRECTION('',(-1.,1.59594559789866E-16,-5.17008107961379E-16));
#738=DIRECTION('',(1.,-1.59594559789866E-16,5.17008107961379E-16));
#739=DIRECTION('',(-1.59594559789866E-16,-1.,-1.52432365660652E-30));
#740=DIRECTION('',(-1.,1.59594559789866E-16,-5.17008107961379E-16));
#741=DIRECTION('',(1.59594559789866E-16,1.,1.52432365660652E-30));
#742=DIRECTION('',(1.,-1.59594559789866E-16,5.17008107961379E-16));
#743=DIRECTION('center_axis',(-1.59594559789866E-16,-1.,-1.52432365660652E-30));
#744=DIRECTION('ref_axis',(-2.83276944882398E-16,-1.4791141972894E-30,1.));
#745=DIRECTION('center_axis',(-1.59594559789866E-16,-1.,-1.52432365660652E-30));
#746=DIRECTION('ref_axis',(-2.83276944882398E-16,-1.4791141972894E-30,1.));
#747=DIRECTION('center_axis',(1.59594559789866E-16,1.,1.52432365660652E-30));
#748=DIRECTION('ref_axis',(-2.83276944882398E-16,-1.4791141972894E-30,1.));
#749=DIRECTION('',(-1.,1.59594559789866E-16,-4.58575317191634E-16));
#750=DIRECTION('center_axis',(1.59594559789866E-16,1.,1.52432365660652E-30));
#751=DIRECTION('ref_axis',(-0.707106781186547,1.12850395467897E-16,-0.707106781186548));
#752=DIRECTION('',(-2.24844154112653E-16,-1.48843975280959E-30,1.));
#753=DIRECTION('center_axis',(1.59594559789866E-16,1.,1.52432365660652E-30));
#754=DIRECTION('ref_axis',(-2.83276944882398E-16,-1.4791141972894E-30,1.));
#755=DIRECTION('',(-2.24844154112653E-16,-1.48843975280959E-30,1.));
#756=DIRECTION('center_axis',(1.59594559789866E-16,1.,1.52432365660652E-30));
#757=DIRECTION('ref_axis',(-0.707106781186547,1.12850395467895E-16,0.707106781186548));
#758=DIRECTION('center_axis',(1.59594559789866E-16,1.,1.52432365660652E-30));
#759=DIRECTION('ref_axis',(-2.83276944882398E-16,-1.4791141972894E-30,1.));
#760=DIRECTION('center_axis',(1.59594559789866E-16,1.,1.52432365660652E-30));
#761=DIRECTION('ref_axis',(0.707106781186547,-1.12850395467897E-16,0.707106781186548));
#762=DIRECTION('',(4.95457818034181E-17,1.51641641937016E-30,-1.));
#763=DIRECTION('',(1.,-1.59594559789866E-16,-3.52224876408394E-16));
#764=DIRECTION('center_axis',(1.59594559789866E-16,1.,1.52432365660652E-30));
#765=DIRECTION('ref_axis',(-2.83276944882398E-16,-1.4791141972894E-30,1.));
#766=DIRECTION('',(-1.,1.59594559789866E-16,-1.2361233351262E-16));
#767=DIRECTION('',(4.95457818034181E-17,1.51641641937016E-30,-1.));
#768=DIRECTION('center_axis',(1.59594559789866E-16,1.,1.52432365660652E-30));
#769=DIRECTION('ref_axis',(0.707106781186548,-1.12850395467895E-16,-0.707106781186547));
#770=DIRECTION('',(-1.,1.59594559789866E-16,-4.58575317191634E-16));
#771=DIRECTION('center_axis',(3.52224876408394E-16,-1.58053683070396E-30,
1.));
#772=DIRECTION('ref_axis',(-1.,1.59594559789866E-16,3.52224876408394E-16));
#773=DIRECTION('',(-1.59594559789866E-16,-1.,-1.52432365660652E-30));
#774=DIRECTION('',(-1.,1.59594559789866E-16,3.52224876408394E-16));
#775=DIRECTION('',(1.59594559789866E-16,1.,1.52432365660652E-30));
#776=DIRECTION('center_axis',(1.2361233351262E-16,1.50459580065497E-30,
-1.));
#777=DIRECTION('ref_axis',(1.,-1.59594559789866E-16,1.2361233351262E-16));
#778=DIRECTION('',(-1.59594559789866E-16,-1.,-1.52432365660652E-30));
#779=DIRECTION('',(-1.,1.59594559789866E-16,-1.2361233351262E-16));
#780=DIRECTION('',(1.59594559789866E-16,1.,1.52432365660652E-30));
#781=DIRECTION('center_axis',(1.,-1.59594559789866E-16,4.95457818034181E-17));
#782=DIRECTION('ref_axis',(4.95457818034181E-17,1.51641641937016E-30,-1.));
#783=DIRECTION('',(-4.95457818034181E-17,-1.51641641937016E-30,1.));
#784=DIRECTION('',(-1.59594559789866E-16,-1.,-1.52432365660652E-30));
#785=DIRECTION('',(-4.95457818034181E-17,-1.51641641937016E-30,1.));
#786=DIRECTION('',(1.59594559789866E-16,1.,1.52432365660652E-30));
#787=DIRECTION('center_axis',(-1.59594559789866E-16,-1.,-1.52432365660652E-30));
#788=DIRECTION('ref_axis',(-2.83276944882398E-16,-1.4791141972894E-30,1.));
#789=DIRECTION('center_axis',(-1.59594559789866E-16,-1.,-1.52432365660652E-30));
#790=DIRECTION('ref_axis',(-2.83276944882398E-16,-1.4791141972894E-30,1.));
#791=DIRECTION('center_axis',(-1.59594559789866E-16,-1.,-1.52432365660652E-30));
#792=DIRECTION('ref_axis',(-2.83276944882398E-16,-1.4791141972894E-30,1.));
#793=DIRECTION('center_axis',(-1.59594559789866E-16,-1.,-1.52432365660652E-30));
#794=DIRECTION('ref_axis',(-2.83276944882398E-16,-1.4791141972894E-30,1.));
#795=DIRECTION('center_axis',(-1.59594559789866E-16,-1.,-1.52432365660652E-30));
#796=DIRECTION('ref_axis',(0.999993910509771,-1.59593587940353E-16,-0.00348983429070397));
#797=DIRECTION('center_axis',(-1.59594559789866E-16,-1.,-1.52432365660652E-30));
#798=DIRECTION('ref_axis',(-2.83276944882398E-16,-1.4791141972894E-30,1.));
#799=DIRECTION('center_axis',(-1.59594559789866E-16,-1.,-1.52432365660652E-30));
#800=DIRECTION('ref_axis',(-2.83276944882398E-16,-1.4791141972894E-30,1.));
#801=DIRECTION('center_axis',(-1.59594559789866E-16,-1.,-1.52432365660652E-30));
#802=DIRECTION('ref_axis',(-2.83276944882398E-16,-1.4791141972894E-30,1.));
#803=DIRECTION('center_axis',(-1.59594559789866E-16,-1.,-1.52432365660652E-30));
#804=DIRECTION('ref_axis',(-0.999993910509771,1.59593587940353E-16,0.0034898342907036));
#805=DIRECTION('center_axis',(-1.59594559789866E-16,-1.,-1.52432365660652E-30));
#806=DIRECTION('ref_axis',(-2.83276944882398E-16,-1.4791141972894E-30,1.));
#807=DIRECTION('center_axis',(-1.59594559789866E-16,-1.,-1.52432365660652E-30));
#808=DIRECTION('ref_axis',(-2.83276944882398E-16,-1.4791141972894E-30,1.));
#809=DIRECTION('',(2.24844154112653E-16,1.48843975280959E-30,-1.));
#810=DIRECTION('center_axis',(-1.59594559789866E-16,-1.,-1.52432365660652E-30));
#811=DIRECTION('ref_axis',(-2.83276944882398E-16,-1.4791141972894E-30,1.));
#812=DIRECTION('center_axis',(-1.59594559789866E-16,-1.,-1.52432365660652E-30));
#813=DIRECTION('ref_axis',(-0.00348983429070367,5.56958567365954E-19,-0.999993910509771));
#814=DIRECTION('center_axis',(-1.59594559789866E-16,-1.,-1.52432365660652E-30));
#815=DIRECTION('ref_axis',(-2.83276944882398E-16,-1.4791141972894E-30,1.));
#816=DIRECTION('center_axis',(-1.59594559789866E-16,-1.,-1.52432365660652E-30));
#817=DIRECTION('ref_axis',(-2.83276944882398E-16,-1.4791141972894E-30,1.));
#818=DIRECTION('',(1.,-1.59594559789866E-16,4.58575317191634E-16));
#819=DIRECTION('center_axis',(-1.59594559789866E-16,-1.,-1.52432365660652E-30));
#820=DIRECTION('ref_axis',(-2.83276944882398E-16,-1.4791141972894E-30,1.));
#821=DIRECTION('center_axis',(1.59594559789866E-16,1.,1.52432365660652E-30));
#822=DIRECTION('ref_axis',(-0.707106781186547,1.12850395467895E-16,0.707106781186548));
#823=DIRECTION('',(1.59594559789866E-16,1.,1.52432365660652E-30));
#824=DIRECTION('center_axis',(1.59594559789866E-16,1.,1.52432365660652E-30));
#825=DIRECTION('ref_axis',(-0.707106781186547,1.12850395467895E-16,0.707106781186548));
#826=DIRECTION('center_axis',(-1.,1.59594559789866E-16,-2.24844154112653E-16));
#827=DIRECTION('ref_axis',(-2.24844154112653E-16,-1.48843975280959E-30,
1.));
#828=DIRECTION('',(-1.59594559789866E-16,-1.,-1.52432365660652E-30));
#829=DIRECTION('',(2.24844154112653E-16,1.48843975280959E-30,-1.));
#830=DIRECTION('center_axis',(1.59594559789866E-16,1.,1.52432365660652E-30));
#831=DIRECTION('ref_axis',(0.707106781186547,-1.12850395467897E-16,0.707106781186548));
#832=DIRECTION('center_axis',(1.59594559789866E-16,1.,1.52432365660652E-30));
#833=DIRECTION('ref_axis',(0.707106781186547,-1.12850395467897E-16,0.707106781186548));
#834=DIRECTION('center_axis',(1.59594559789866E-16,1.,1.52432365660652E-30));
#835=DIRECTION('ref_axis',(0.707106781186548,-1.12850395467895E-16,-0.707106781186547));
#836=DIRECTION('center_axis',(1.59594559789866E-16,1.,1.52432365660652E-30));
#837=DIRECTION('ref_axis',(0.707106781186548,-1.12850395467895E-16,-0.707106781186547));
#838=DIRECTION('',(-1.59594559789866E-16,-1.,-1.52432365660652E-30));
#839=DIRECTION('center_axis',(1.59594559789866E-16,1.,1.52432365660652E-30));
#840=DIRECTION('ref_axis',(-0.707106781186547,1.12850395467897E-16,-0.707106781186548));
#841=DIRECTION('',(1.59594559789866E-16,1.,1.52432365660652E-30));
#842=DIRECTION('center_axis',(1.59594559789866E-16,1.,1.52432365660652E-30));
#843=DIRECTION('ref_axis',(-0.707106781186547,1.12850395467897E-16,-0.707106781186548));
#844=DIRECTION('center_axis',(4.58575317191634E-16,1.45113753072882E-30,
-1.));
#845=DIRECTION('ref_axis',(-1.,1.59594559789866E-16,-4.58575317191634E-16));
#846=DIRECTION('',(1.,-1.59594559789866E-16,4.58575317191634E-16));
#847=DIRECTION('center_axis',(1.59594559789866E-16,1.,1.52432365660652E-30));
#848=DIRECTION('ref_axis',(-2.83276944882398E-16,-1.4791141972894E-30,1.));
#849=DIRECTION('center_axis',(-1.59594559789866E-16,-1.,-1.52432365660652E-30));
#850=DIRECTION('ref_axis',(-2.83276944882398E-16,-1.4791141972894E-30,1.));
#851=DIRECTION('',(-1.59594559789866E-16,-1.,-1.52432365660652E-30));
#852=DIRECTION('center_axis',(1.59594559789866E-16,1.,1.52432365660652E-30));
#853=DIRECTION('ref_axis',(-2.83276944882398E-16,-1.4791141972894E-30,1.));
#854=DIRECTION('center_axis',(-1.59594559789866E-16,-1.,-1.52432365660652E-30));
#855=DIRECTION('ref_axis',(-2.83276944882398E-16,-1.4791141972894E-30,1.));
#856=DIRECTION('',(-1.59594559789866E-16,-1.,-1.52432365660652E-30));
#857=DIRECTION('center_axis',(1.59594559789866E-16,1.,1.52432365660652E-30));
#858=DIRECTION('ref_axis',(-2.83276944882398E-16,-1.4791141972894E-30,1.));
#859=DIRECTION('center_axis',(-1.59594559789866E-16,-1.,-1.52432365660652E-30));
#860=DIRECTION('ref_axis',(-2.83276944882398E-16,-1.4791141972894E-30,1.));
#861=DIRECTION('',(-1.59594559789866E-16,-1.,-1.52432365660652E-30));
#862=DIRECTION('center_axis',(1.59594559789866E-16,1.,1.52432365660652E-30));
#863=DIRECTION('ref_axis',(-2.83276944882398E-16,-1.4791141972894E-30,1.));
#864=DIRECTION('center_axis',(-1.59594559789866E-16,-1.,-1.52432365660652E-30));
#865=DIRECTION('ref_axis',(-2.83276944882398E-16,-1.4791141972894E-30,1.));
#866=DIRECTION('',(-1.59594559789866E-16,-1.,-1.52432365660652E-30));
#867=DIRECTION('center_axis',(1.59594559789866E-16,1.,1.52432365660652E-30));
#868=DIRECTION('ref_axis',(-2.83276944882398E-16,-1.4791141972894E-30,1.));
#869=DIRECTION('center_axis',(1.59594559789866E-16,1.,1.52432365660652E-30));
#870=DIRECTION('ref_axis',(-2.83276944882398E-16,-1.4791141972894E-30,1.));
#871=DIRECTION('',(-1.59594559789866E-16,-1.,-1.52432365660652E-30));
#872=DIRECTION('center_axis',(-1.59594559789866E-16,-1.,-1.52432365660652E-30));
#873=DIRECTION('ref_axis',(-2.83276944882398E-16,-1.4791141972894E-30,1.));
#874=CARTESIAN_POINT('',(0.,0.,0.));
#875=CARTESIAN_POINT('Origin',(-12.7318550637533,-17.,5.38781655672178));
#876=CARTESIAN_POINT('',(-12.7318550637533,-19.,3.64944915160231));
#877=CARTESIAN_POINT('',(-12.7318550637533,-19.,5.38781655672178));
#878=CARTESIAN_POINT('',(-12.7318550637533,-19.,7.76281655672178));
#879=CARTESIAN_POINT('',(-12.7318550637533,-17.,3.64944915160231));
#880=CARTESIAN_POINT('',(-12.7318550637533,-17.,3.64944915160231));
#881=CARTESIAN_POINT('',(-12.7318550637533,-17.,5.38781655672178));
#882=CARTESIAN_POINT('',(-12.7318550637533,-17.,3.64944915160231));
#883=CARTESIAN_POINT('',(-12.7318550637533,-17.,5.38781655672178));
#884=CARTESIAN_POINT('Origin',(-10.257624311352,-17.,3.6408144436985));
#885=CARTESIAN_POINT('',(-10.257624311352,-19.,5.38781655672178));
#886=CARTESIAN_POINT('',(-10.257624311352,-19.,3.6408144436985));
#887=CARTESIAN_POINT('',(-10.257624311352,-19.,6.88931550021014));
#888=CARTESIAN_POINT('',(-10.257624311352,-17.,5.38781655672178));
#889=CARTESIAN_POINT('',(-10.257624311352,-17.,5.38781655672178));
#890=CARTESIAN_POINT('',(-10.257624311352,-17.,3.6408144436985));
#891=CARTESIAN_POINT('',(-10.257624311352,-17.,3.6408144436985));
#892=CARTESIAN_POINT('',(-10.257624311352,-17.,3.6408144436985));
#893=CARTESIAN_POINT('Origin',(-16.25,-17.,11.3696716204751));
#894=CARTESIAN_POINT('',(-17.9883674051195,-19.,11.3696716204751));
#895=CARTESIAN_POINT('',(-16.25,-19.,11.3696716204751));
#896=CARTESIAN_POINT('',(-13.875,-19.,11.3696716204751));
#897=CARTESIAN_POINT('',(-17.9883674051195,-17.,11.3696716204751));
#898=CARTESIAN_POINT('',(-17.9883674051195,-17.,11.3696716204751));
#899=CARTESIAN_POINT('',(-16.25,-17.,11.3696716204751));
#900=CARTESIAN_POINT('',(-17.9883674051195,-17.,11.3696716204751));
#901=CARTESIAN_POINT('',(-16.25,-17.,11.3696716204751));
#902=CARTESIAN_POINT('Origin',(-17.9970021130233,-17.,8.89544086807381));
#903=CARTESIAN_POINT('',(-16.25,-19.,8.89544086807381));
#904=CARTESIAN_POINT('',(-17.9970021130233,-19.,8.89544086807381));
#905=CARTESIAN_POINT('',(-14.7485010565116,-19.,8.89544086807381));
#906=CARTESIAN_POINT('',(-16.25,-17.,8.89544086807381));
#907=CARTESIAN_POINT('',(-16.25,-17.,8.89544086807381));
#908=CARTESIAN_POINT('',(-17.9970021130233,-17.,8.89544086807381));
#909=CARTESIAN_POINT('',(-17.9970021130233,-17.,8.89544086807381));
#910=CARTESIAN_POINT('',(-17.9970021130233,-17.,8.89544086807381));
#911=CARTESIAN_POINT('Origin',(-10.2681449362466,-17.,14.8878165567218));
#912=CARTESIAN_POINT('',(-10.2681449362466,-19.,16.6261839618412));
#913=CARTESIAN_POINT('',(-10.2681449362466,-19.,14.8878165567218));
#914=CARTESIAN_POINT('',(-10.2681449362466,-19.,12.5128165567218));
#915=CARTESIAN_POINT('',(-10.2681449362466,-17.,16.6261839618412));
#916=CARTESIAN_POINT('',(-10.2681449362466,-17.,16.6261839618412));
#917=CARTESIAN_POINT('',(-10.2681449362466,-17.,14.8878165567218));
#918=CARTESIAN_POINT('',(-10.2681449362466,-17.,16.6261839618412));
#919=CARTESIAN_POINT('',(-10.2681449362466,-17.,14.8878165567218));
#920=CARTESIAN_POINT('Origin',(-12.742375688648,-17.,16.6348186697451));
#921=CARTESIAN_POINT('',(-12.742375688648,-19.,14.8878165567218));
#922=CARTESIAN_POINT('',(-12.742375688648,-19.,16.6348186697451));
#923=CARTESIAN_POINT('',(-12.742375688648,-19.,13.3863176132334));
#924=CARTESIAN_POINT('',(-12.742375688648,-17.,14.8878165567218));
#925=CARTESIAN_POINT('',(-12.742375688648,-17.,14.8878165567218));
#926=CARTESIAN_POINT('',(-12.742375688648,-17.,16.6348186697451));
#927=CARTESIAN_POINT('',(-12.742375688648,-17.,16.6348186697451));
#928=CARTESIAN_POINT('',(-12.742375688648,-17.,16.6348186697451));
#929=CARTESIAN_POINT('Origin',(-16.25,-17.,14.8878165567218));
#930=CARTESIAN_POINT('',(-13.8776301562236,-17.,14.8878165567218));
#931=CARTESIAN_POINT('',(-15.25,-19.,14.8878165567218));
#932=CARTESIAN_POINT('',(-13.875,-19.,14.8878165567218));
#933=CARTESIAN_POINT('',(-15.25,-12.,14.8878165567218));
#934=CARTESIAN_POINT('',(-15.25,-17.,14.8878165567218));
#935=CARTESIAN_POINT('',(-7.74999999999999,-12.,14.8878165567218));
#936=CARTESIAN_POINT('',(-13.875,-12.,14.8878165567218));
#937=CARTESIAN_POINT('',(-7.74999999999999,-19.,14.8878165567218));
#938=CARTESIAN_POINT('',(-7.74999999999999,-17.,14.8878165567218));
#939=CARTESIAN_POINT('',(-13.875,-19.,14.8878165567218));
#940=CARTESIAN_POINT('Origin',(-11.5,-19.,10.1378165567218));
#941=CARTESIAN_POINT('',(-11.5,-19.,-0.112183443278224));
#942=CARTESIAN_POINT('Origin',(-11.5,-19.,10.1378165567218));
#943=CARTESIAN_POINT('Origin',(-11.5,-19.,2.13781655672178));
#944=CARTESIAN_POINT('',(-15.25,-19.,5.38781655672177));
#945=CARTESIAN_POINT('',(-9.12499999999999,-19.,5.38781655672178));
#946=CARTESIAN_POINT('',(-16.25,-19.,6.38781655672178));
#947=CARTESIAN_POINT('Origin',(-15.25,-19.,6.38781655672178));
#948=CARTESIAN_POINT('',(-16.25,-19.,7.76281655672178));
#949=CARTESIAN_POINT('Origin',(-19.5,-19.,10.1378165567218));
#950=CARTESIAN_POINT('',(-16.25,-19.,13.8878165567218));
#951=CARTESIAN_POINT('',(-16.25,-19.,7.76281655672178));
#952=CARTESIAN_POINT('Origin',(-15.25,-19.,13.8878165567218));
#953=CARTESIAN_POINT('Origin',(-11.5,-19.,18.1378165567218));
#954=CARTESIAN_POINT('',(-6.74999999999999,-19.,13.8878165567218));
#955=CARTESIAN_POINT('Origin',(-7.74999999999999,-19.,13.8878165567218));
#956=CARTESIAN_POINT('',(-6.74999999999999,-19.,11.3801922453697));
#957=CARTESIAN_POINT('',(-6.74999999999999,-19.,12.5128165567218));
#958=CARTESIAN_POINT('',(-5.00299788697671,-19.,11.3801922453697));
#959=CARTESIAN_POINT('',(-8.25149894348835,-19.,11.3801922453697));
#960=CARTESIAN_POINT('',(-5.01163259488052,-19.,8.90596149296844));
#961=CARTESIAN_POINT('Origin',(-3.49999999999999,-19.,10.1378165567218));
#962=CARTESIAN_POINT('',(-6.74999999999999,-19.,8.90596149296844));
#963=CARTESIAN_POINT('',(-9.12499999999999,-19.,8.90596149296844));
#964=CARTESIAN_POINT('',(-6.74999999999999,-19.,6.38781655672178));
#965=CARTESIAN_POINT('',(-6.74999999999999,-19.,12.5128165567218));
#966=CARTESIAN_POINT('',(-7.74999999999999,-19.,5.38781655672178));
#967=CARTESIAN_POINT('Origin',(-7.74999999999999,-19.,6.38781655672178));
#968=CARTESIAN_POINT('',(-9.12499999999999,-19.,5.38781655672178));
#969=CARTESIAN_POINT('Origin',(-5.00299788697671,-17.,11.3801922453697));
#970=CARTESIAN_POINT('',(-6.74999999999999,-17.,11.3801922453697));
#971=CARTESIAN_POINT('',(-6.74999999999999,-17.,11.3801922453697));
#972=CARTESIAN_POINT('',(-5.00299788697671,-17.,11.3801922453697));
#973=CARTESIAN_POINT('',(-5.00299788697671,-17.,11.3801922453697));
#974=CARTESIAN_POINT('',(-5.00299788697671,-17.,11.3801922453697));
#975=CARTESIAN_POINT('Origin',(-6.74999999999999,-17.,8.90596149296844));
#976=CARTESIAN_POINT('',(-5.01163259488052,-17.,8.90596149296844));
#977=CARTESIAN_POINT('',(-5.01163259488052,-17.,8.90596149296844));
#978=CARTESIAN_POINT('',(-6.74999999999999,-17.,8.90596149296844));
#979=CARTESIAN_POINT('',(-5.01163259488052,-17.,8.90596149296844));
#980=CARTESIAN_POINT('',(-6.74999999999999,-17.,8.90596149296844));
#981=CARTESIAN_POINT('Origin',(-6.74999999999999,-17.,14.8878165567218));
#982=CARTESIAN_POINT('',(-6.74999999999999,-17.,12.5154467129454));
#983=CARTESIAN_POINT('',(-6.74999999999998,-12.,13.8878165567218));
#984=CARTESIAN_POINT('',(-6.74999999999999,-17.,13.8878165567218));
#985=CARTESIAN_POINT('',(-6.74999999999999,-12.,6.38781655672178));
#986=CARTESIAN_POINT('',(-6.74999999999999,-12.,12.5128165567218));
#987=CARTESIAN_POINT('',(-6.74999999999999,-17.,6.38781655672178));
#988=CARTESIAN_POINT('Origin',(-11.5,-17.,18.1378165567218));
#989=CARTESIAN_POINT('Origin',(-11.5,-17.,18.1378165567218));
#990=CARTESIAN_POINT('Origin',(-11.5,-17.,18.1378165567218));
#991=CARTESIAN_POINT('',(-11.5,-17.,16.9378165567218));
#992=CARTESIAN_POINT('Origin',(-11.5,-17.,18.1378165567218));
#993=CARTESIAN_POINT('Origin',(-3.49999999999999,-17.,10.1378165567218));
#994=CARTESIAN_POINT('Origin',(-3.49999999999999,-17.,10.1378165567218));
#995=CARTESIAN_POINT('Origin',(-3.49999999999999,-17.,10.1378165567218));
#996=CARTESIAN_POINT('',(-3.49999999999999,-17.,8.93781655672178));
#997=CARTESIAN_POINT('Origin',(-3.49999999999999,-17.,10.1378165567218));
#998=CARTESIAN_POINT('Origin',(-19.5,-17.,10.1378165567218));
#999=CARTESIAN_POINT('Origin',(-19.5,-17.,10.1378165567218));
#1000=CARTESIAN_POINT('Origin',(-19.5,-17.,10.1378165567218));
#1001=CARTESIAN_POINT('',(-16.25,-17.,7.76018640049812));
#1002=CARTESIAN_POINT('',(-19.5,-17.,8.93781655672177));
#1003=CARTESIAN_POINT('Origin',(-19.5,-17.,10.1378165567218));
#1004=CARTESIAN_POINT('Origin',(-11.5,-17.,2.13781655672178));
#1005=CARTESIAN_POINT('Origin',(-11.5,-17.,2.13781655672178));
#1006=CARTESIAN_POINT('Origin',(-11.5,-17.,2.13781655672178));
#1007=CARTESIAN_POINT('',(-9.12236984377633,-17.,5.38781655672178));
#1008=CARTESIAN_POINT('',(-11.5,-17.,0.937816556721777));
#1009=CARTESIAN_POINT('Origin',(-11.5,-17.,2.13781655672178));
#1010=CARTESIAN_POINT('Origin',(-15.25,-17.,13.8878165567218));
#1011=CARTESIAN_POINT('',(-16.25,-12.,13.8878165567218));
#1012=CARTESIAN_POINT('',(-16.25,-17.,13.8878165567218));
#1013=CARTESIAN_POINT('Origin',(-15.25,-12.,13.8878165567218));
#1014=CARTESIAN_POINT('Origin',(-16.25,-17.,5.38781655672177));
#1015=CARTESIAN_POINT('',(-16.25,-12.,6.38781655672178));
#1016=CARTESIAN_POINT('',(-16.25,-17.,6.38781655672178));
#1017=CARTESIAN_POINT('',(-16.25,-12.,7.76281655672178));
#1018=CARTESIAN_POINT('Origin',(-7.74999999999999,-17.,13.8878165567218));
#1019=CARTESIAN_POINT('Origin',(-7.74999999999999,-12.,13.8878165567218));
#1020=CARTESIAN_POINT('Origin',(-7.74999999999999,-17.,6.38781655672178));
#1021=CARTESIAN_POINT('',(-7.74999999999999,-12.,5.38781655672178));
#1022=CARTESIAN_POINT('Origin',(-7.74999999999999,-12.,6.38781655672178));
#1023=CARTESIAN_POINT('',(-7.74999999999999,-17.,5.38781655672178));
#1024=CARTESIAN_POINT('Origin',(-15.25,-17.,6.38781655672178));
#1025=CARTESIAN_POINT('',(-15.25,-12.,5.38781655672177));
#1026=CARTESIAN_POINT('',(-15.25,-17.,5.38781655672177));
#1027=CARTESIAN_POINT('Origin',(-15.25,-12.,6.38781655672178));
#1028=CARTESIAN_POINT('Origin',(-6.74999999999999,-17.,5.38781655672178));
#1029=CARTESIAN_POINT('',(-9.12499999999999,-12.,5.38781655672178));
#1030=CARTESIAN_POINT('Origin',(-11.5,-17.,18.1378165567218));
#1031=CARTESIAN_POINT('',(-11.5,-12.,16.9378165567218));
#1032=CARTESIAN_POINT('Origin',(-11.5,-12.,18.1378165567218));
#1033=CARTESIAN_POINT('',(-11.5,-17.,16.9378165567218));
#1034=CARTESIAN_POINT('Origin',(-11.5,-17.,2.13781655672178));
#1035=CARTESIAN_POINT('',(-11.5,-12.,0.937816556721777));
#1036=CARTESIAN_POINT('Origin',(-11.5,-12.,2.13781655672178));
#1037=CARTESIAN_POINT('',(-11.5,-17.,0.937816556721777));
#1038=CARTESIAN_POINT('Origin',(-19.5,-17.,10.1378165567218));
#1039=CARTESIAN_POINT('',(-19.5,-12.,8.93781655672177));
#1040=CARTESIAN_POINT('Origin',(-19.5,-12.,10.1378165567218));
#1041=CARTESIAN_POINT('',(-19.5,-17.,8.93781655672177));
#1042=CARTESIAN_POINT('Origin',(-3.49999999999999,-17.,10.1378165567218));
#1043=CARTESIAN_POINT('',(-3.49999999999999,-12.,8.93781655672178));
#1044=CARTESIAN_POINT('Origin',(-3.49999999999999,-12.,10.1378165567218));
#1045=CARTESIAN_POINT('',(-3.49999999999999,-17.,8.93781655672178));
#1046=CARTESIAN_POINT('Origin',(-11.5,-17.,10.1378165567218));
#1047=CARTESIAN_POINT('',(-11.5,-12.,-0.112183443278224));
#1048=CARTESIAN_POINT('Origin',(-11.5,-12.,10.1378165567218));
#1049=CARTESIAN_POINT('',(-11.5,-17.,-0.112183443278224));
#1050=CARTESIAN_POINT('Origin',(-11.5,-12.,10.1378165567218));
#1051=UNCERTAINTY_MEASURE_WITH_UNIT(LENGTH_MEASURE(0.01),#1055,
'DISTANCE_ACCURACY_VALUE',
'Maximum model space distance between geometric entities at asserted c
onnectivities');
#1052=UNCERTAINTY_MEASURE_WITH_UNIT(LENGTH_MEASURE(0.01),#1055,
'DISTANCE_ACCURACY_VALUE',
'Maximum model space distance between geometric entities at asserted c
onnectivities');
#1053=(
GEOMETRIC_REPRESENTATION_CONTEXT(3)
GLOBAL_UNCERTAINTY_ASSIGNED_CONTEXT((#1051))
GLOBAL_UNIT_ASSIGNED_CONTEXT((#1055,#1057,#1058))
REPRESENTATION_CONTEXT('','3D')
);
#1054=(
GEOMETRIC_REPRESENTATION_CONTEXT(3)
GLOBAL_UNCERTAINTY_ASSIGNED_CONTEXT((#1052))
GLOBAL_UNIT_ASSIGNED_CONTEXT((#1055,#1057,#1058))
REPRESENTATION_CONTEXT('','3D')
);
#1055=(
LENGTH_UNIT()
NAMED_UNIT(*)
SI_UNIT(.MILLI.,.METRE.)
);
#1056=(
LENGTH_UNIT()
NAMED_UNIT(*)
SI_UNIT($,.METRE.)
);
#1057=(
NAMED_UNIT(*)
PLANE_ANGLE_UNIT()
SI_UNIT($,.RADIAN.)
);
#1058=(
NAMED_UNIT(*)
SI_UNIT($,.STERADIAN.)
SOLID_ANGLE_UNIT()
);
#1059=SHAPE_DEFINITION_REPRESENTATION(#1060,#1061);
#1060=PRODUCT_DEFINITION_SHAPE('',$,#1063);
#1061=SHAPE_REPRESENTATION('',(#639),#1053);
#1062=PRODUCT_DEFINITION_CONTEXT('part definition',#1067,'design');
#1063=PRODUCT_DEFINITION('2026-08-17-11-03-46-681','(Unsaved)',#1064,#1062);
#1064=PRODUCT_DEFINITION_FORMATION('',$,#1069);
#1065=PRODUCT_RELATED_PRODUCT_CATEGORY('(Unsaved)','(Unsaved)',(#1069));
#1066=APPLICATION_PROTOCOL_DEFINITION('international standard',
'automotive_design',2009,#1067);
#1067=APPLICATION_CONTEXT(
'Core Data for Automotive Mechanical Design Process');
#1068=PRODUCT_CONTEXT('part definition',#1067,'mechanical');
#1069=PRODUCT('2026-08-17-11-03-46-681','(Unsaved)',$,(#1068));
#1070=PRESENTATION_STYLE_ASSIGNMENT((#1071));
#1071=SURFACE_STYLE_USAGE(.BOTH.,#1072);
#1072=SURFACE_SIDE_STYLE('',(#1073));
#1073=SURFACE_STYLE_FILL_AREA(#1074);
#1074=FILL_AREA_STYLE('Steel - Satin',(#1075));
#1075=FILL_AREA_STYLE_COLOUR('Steel - Satin',#1076);
#1076=COLOUR_RGB('Steel - Satin',0.627450980392157,0.627450980392157,0.627450980392157);
ENDSEC;
END-ISO-10303-21;
